<svg xmlns="http://www.w3.org/2000/svg" width="160" height="160" viewBox="0 0 16 16" shape-rendering="crispEdges">
  <rect width="16" height="16" fill="none"/>
  <rect x="4" y="1" width="2" height="5" fill="#ffd6e8"/>
  <rect x="10" y="1" width="2" height="5" fill="#ffd6e8"/>
  <rect x="5" y="2" width="1" height="3" fill="#ff8fab"/>
  <rect x="10" y="2" width="1" height="3" fill="#ff8fab"/>
  <rect x="3" y="5" width="10" height="7" fill="#ffffff"/>
  <rect x="4" y="4" width="8" height="2" fill="#ffffff"/>
  <rect x="5" y="7" width="2" height="2" fill="#2b2d42"/>
  <rect x="9" y="7" width="2" height="2" fill="#2b2d42"/>
  <rect x="7" y="9" width="2" height="1" fill="#ff8fab"/>
  <rect x="5" y="10" width="1" height="1" fill="#ffb3c6"/>
  <rect x="10" y="10" width="1" height="1" fill="#ffb3c6"/>
  <rect x="4" y="12" width="3" height="2" fill="#ffffff"/>
  <rect x="9" y="12" width="3" height="2" fill="#ffffff"/>
  <rect x="2" y="8" width="1" height="1" fill="#cdb4db"/>
  <rect x="13" y="8" width="1" height="1" fill="#cdb4db"/>
</svg>
