<svg xmlns="http://www.w3.org/2000/svg" width="160" height="160" viewBox="0 0 16 16" shape-rendering="crispEdges">
  <rect width="16" height="16" fill="none"/>
  <rect x="3" y="2" width="2" height="2" fill="#ffb86c"/>
  <rect x="11" y="2" width="2" height="2" fill="#ffb86c"/>
  <rect x="2" y="4" width="12" height="8" fill="#ffb86c"/>
  <rect x="4" y="3" width="8" height="1" fill="#ffb86c"/>
  <rect x="4" y="4" width="8" height="1" fill="#ffd6a5"/>
  <rect x="3" y="5" width="10" height="6" fill="#ffd6a5"/>
  <rect x="4" y="6" width="2" height="2" fill="#2b2d42"/>
  <rect x="10" y="6" width="2" height="2" fill="#2b2d42"/>
  <rect x="7" y="8" width="2" height="1" fill="#ff6b6b"/>
  <rect x="6" y="9" width="1" height="1" fill="#2b2d42"/>
  <rect x="9" y="9" width="1" height="1" fill="#2b2d42"/>
  <rect x="2" y="7" width="1" height="1" fill="#ffffff"/>
  <rect x="13" y="7" width="1" height="1" fill="#ffffff"/>
  <rect x="1" y="8" width="2" height="1" fill="#ff9f1c"/>
  <rect x="13" y="8" width="2" height="1" fill="#ff9f1c"/>
  <rect x="4" y="12" width="2" height="2" fill="#ffb86c"/>
  <rect x="10" y="12" width="2" height="2" fill="#ffb86c"/>
  <rect x="6" y="12" width="4" height="1" fill="#ffd6a5"/>
  <rect x="13" y="11" width="2" height="1" fill="#ffb86c"/>
  <rect x="14" y="10" width="1" height="1" fill="#ffb86c"/>
</svg>
